<svg xmlns="http://www.w3.org/2000/svg" xmlns:xlink="http://www.w3.org/1999/xlink" width="500" zoomAndPan="magnify" viewBox="0 0 375 374.999991" height="500" preserveAspectRatio="xMidYMid meet" version="1.0"><defs><g/><clipPath id="c3adc7270c"><path d="M 337.5 182.054688 L 342.945312 182.054688 L 342.945312 187.5 L 337.5 187.5 Z M 337.5 182.054688 " clip-rule="nonzero"/></clipPath><clipPath id="7da1c52035"><path d="M 340.222656 182.054688 C 338.71875 182.054688 337.5 183.273438 337.5 184.777344 C 337.5 186.28125 338.71875 187.5 340.222656 187.5 C 341.726562 187.5 342.945312 186.28125 342.945312 184.777344 C 342.945312 183.273438 341.726562 182.054688 340.222656 182.054688 Z M 340.222656 182.054688 " clip-rule="nonzero"/></clipPath></defs><rect x="-37.5" width="450" fill="#ffffff" y="-37.499999" height="449.999989" fill-opacity="1"/><rect x="-37.5" width="450" fill="#000000" y="-37.499999" height="449.999989" fill-opacity="1"/><g fill="#e8e4de" fill-opacity="1"><g transform="translate(17.138004, 250.151777)"><g><path d="M 69.90625 -103.34375 C 69.101562 -99.257812 68.175781 -95.203125 67.125 -91.171875 C 56.269531 -49.472656 46.945312 -13.691406 39.15625 16.171875 C 36.375 17.160156 35.519531 15.554688 36.59375 11.359375 C 38.40625 2.359375 41.804688 -12.054688 46.796875 -31.890625 C 51.796875 -51.722656 56.960938 -71.523438 62.296875 -91.296875 C 63.367188 -95.316406 64.300781 -99.359375 65.09375 -103.421875 C 65.09375 -103.609375 65.128906 -103.800781 65.203125 -104 C 65.390625 -104.75 65.515625 -105.550781 65.578125 -106.40625 C 65.648438 -107.257812 65.535156 -108.15625 65.234375 -109.09375 C 63.992188 -108.675781 62.890625 -108.117188 61.921875 -107.421875 C 61.660156 -107.273438 61.429688 -107.144531 61.234375 -107.03125 C 52.085938 -101.363281 42.707031 -94.394531 33.09375 -86.125 C 23.488281 -77.863281 15.320312 -69.535156 8.59375 -61.140625 C 7.15625 -59.316406 5.773438 -57.4375 4.453125 -55.5 C 3.140625 -53.570312 1.945312 -51.546875 0.875 -49.421875 C -0.332031 -47.128906 -1.109375 -44.691406 -1.453125 -42.109375 C -2.078125 -37.285156 -0.148438 -34.015625 4.328125 -32.296875 C 7.484375 -31.128906 10.523438 -30.503906 13.453125 -30.421875 C 16.390625 -30.335938 19.113281 -30.519531 21.625 -30.96875 C 24.132812 -31.414062 26.300781 -31.894531 28.125 -32.40625 C 28.875 -32.570312 29.523438 -32.734375 30.078125 -32.890625 C 30.441406 -32.984375 30.8125 -33.023438 31.1875 -33.015625 C 31.570312 -33.003906 31.925781 -32.851562 32.25 -32.5625 C 32.800781 -32.007812 32.304688 -31.4375 30.765625 -30.84375 C 29.222656 -30.25 27.070312 -29.726562 24.3125 -29.28125 C 21.550781 -28.832031 18.597656 -28.53125 15.453125 -28.375 C 9.847656 -28.257812 5.394531 -28.742188 2.09375 -29.828125 C 0.09375 -30.453125 -1.65625 -31.488281 -3.15625 -32.9375 C -4.90625 -34.6875 -5.8125 -36.769531 -5.875 -39.1875 C -5.96875 -41.738281 -5.5625 -44.164062 -4.65625 -46.46875 C -3.15625 -50.25 -1.21875 -53.757812 1.15625 -57 C 5.257812 -62.875 10.195312 -68.71875 15.96875 -74.53125 C 21.738281 -80.34375 27.796875 -85.835938 34.140625 -91.015625 C 40.484375 -96.203125 46.59375 -100.816406 52.46875 -104.859375 C 55.1875 -106.660156 57.945312 -108.378906 60.75 -110.015625 C 62.070312 -110.796875 63.492188 -111.425781 65.015625 -111.90625 C 65.441406 -112.039062 65.832031 -112.109375 66.1875 -112.109375 C 69.019531 -112.703125 70.445312 -111.441406 70.46875 -108.328125 C 70.425781 -106.640625 70.238281 -104.976562 69.90625 -103.34375 Z M 69.90625 -103.34375 "/></g></g><g transform="translate(79.473558, 240.027004)"><g><path d="M 12.09375 -17.625 C 9.125 -15.9375 6.992188 -14.609375 5.703125 -13.640625 C 4.753906 -12.960938 4.234375 -12.441406 4.140625 -12.078125 C 4.046875 -11.722656 4.257812 -11.132812 4.78125 -10.3125 C 4.789062 -10.269531 4.832031 -10.21875 4.90625 -10.15625 C 5.519531 -9.164062 5.960938 -8.109375 6.234375 -6.984375 C 6.742188 -4.691406 5.039062 -2.753906 1.125 -1.171875 C -2.789062 0.410156 -5.503906 0.878906 -7.015625 0.234375 C -8.535156 -0.398438 -9.132812 -1.421875 -8.8125 -2.828125 C -8.5 -4.242188 -7.335938 -5.8125 -5.328125 -7.53125 C -3.316406 -9.257812 -1.984375 -10.488281 -1.328125 -11.21875 C -0.679688 -11.945312 -0.570312 -12.65625 -1 -13.34375 C -1.144531 -13.59375 -1.296875 -13.832031 -1.453125 -14.0625 C -1.816406 -14.65625 -2.191406 -15.257812 -2.578125 -15.875 C -3.296875 -16.988281 -3.710938 -18.132812 -3.828125 -19.3125 C -3.953125 -20.488281 -3.679688 -21.535156 -3.015625 -22.453125 C -2.359375 -23.378906 -1.203125 -24.007812 0.453125 -24.34375 C 1.398438 -24.53125 2.265625 -24.539062 3.046875 -24.375 C 3.835938 -24.207031 4.519531 -23.765625 5.09375 -23.046875 C 5.539062 -22.566406 5.507812 -22.054688 5 -21.515625 C 4.675781 -21.148438 4.273438 -21.039062 3.796875 -21.1875 C 3.492188 -21.269531 3.191406 -21.40625 2.890625 -21.59375 C 2.878906 -21.65625 2.875 -21.6875 2.875 -21.6875 C 2.738281 -21.738281 2.617188 -21.789062 2.515625 -21.84375 C 2.359375 -22.007812 2.195312 -22.128906 2.03125 -22.203125 C 1.457031 -22.515625 0.914062 -22.550781 0.40625 -22.3125 C -0.101562 -22.070312 -0.429688 -21.601562 -0.578125 -20.90625 C -0.671875 -20.351562 -0.675781 -19.800781 -0.59375 -19.25 C -0.445312 -18.59375 -0.191406 -17.972656 0.171875 -17.390625 C 0.410156 -17.035156 0.628906 -16.710938 0.828125 -16.421875 C 1.316406 -15.597656 1.695312 -15.039062 1.96875 -14.75 C 2.238281 -14.457031 2.523438 -14.359375 2.828125 -14.453125 C 3.128906 -14.546875 5.816406 -16.023438 10.890625 -18.890625 C 11.984375 -19.460938 12.382812 -19.039062 12.09375 -17.625 Z M 0.9375 -4.015625 C 2.25 -4.722656 2.679688 -5.757812 2.234375 -7.125 C 2.222656 -7.21875 2.1875 -7.328125 2.125 -7.453125 C 1.914062 -8.203125 1.65625 -8.757812 1.34375 -9.125 C 1.039062 -9.5 0.503906 -9.398438 -0.265625 -8.828125 C -2.148438 -7.296875 -3.851562 -5.597656 -5.375 -3.734375 C -5.457031 -3.566406 -5.546875 -3.421875 -5.640625 -3.296875 C -5.640625 -3.296875 -5.65625 -3.265625 -5.6875 -3.203125 C -5.78125 -3.015625 -5.769531 -2.820312 -5.65625 -2.625 C -5.539062 -2.4375 -5.34375 -2.367188 -5.0625 -2.421875 C -2.945312 -2.441406 -0.945312 -2.972656 0.9375 -4.015625 Z M 0.9375 -4.015625 "/></g></g><g transform="translate(92.813969, 237.860204)"><g><path d="M 29.03125 -20.1875 C 29.65625 -20.75 30.1875 -20.953125 30.625 -20.796875 C 31.0625 -20.640625 31.015625 -20 30.484375 -18.875 C 29.796875 -17.53125 28.414062 -16.003906 26.34375 -14.296875 C 24.28125 -12.585938 22.363281 -11.671875 20.59375 -11.546875 C 18.820312 -11.429688 18.101562 -12.640625 18.4375 -15.171875 C 18.78125 -17.703125 18.957031 -19.113281 18.96875 -19.40625 C 18.988281 -19.707031 18.910156 -19.863281 18.734375 -19.875 C 18.554688 -19.894531 18.191406 -19.632812 17.640625 -19.09375 C 16.023438 -17.550781 14.46875 -15.957031 12.96875 -14.3125 C 12.3125 -13.632812 11.675781 -12.925781 11.0625 -12.1875 C 10.6875 -11.707031 10.289062 -11.234375 9.875 -10.765625 C 9.875 -10.765625 9.859375 -10.738281 9.828125 -10.6875 C 9.390625 -10.070312 8.800781 -9.613281 8.0625 -9.3125 C 7.738281 -9.164062 7.382812 -9.078125 7 -9.046875 C 6.625 -9.015625 6.285156 -9.101562 5.984375 -9.3125 C 5.617188 -9.570312 5.445312 -9.875 5.46875 -10.21875 C 5.5 -10.5625 5.671875 -11.097656 5.984375 -11.828125 C 6.304688 -12.554688 6.65625 -13.359375 7.03125 -14.234375 C 7.414062 -15.109375 7.625 -15.640625 7.65625 -15.828125 C 7.6875 -16.023438 7.628906 -16.207031 7.484375 -16.375 C 7.316406 -16.519531 7.148438 -16.546875 6.984375 -16.453125 C 6.828125 -16.359375 6.257812 -15.820312 5.28125 -14.84375 C 4.3125 -13.875 2.988281 -12.519531 1.3125 -10.78125 C 0.53125 -9.96875 -0.222656 -9.144531 -0.953125 -8.3125 C -1.128906 -8.0625 -1.335938 -7.828125 -1.578125 -7.609375 C -2.109375 -6.972656 -2.742188 -6.570312 -3.484375 -6.40625 C -4.015625 -6.28125 -4.4375 -6.335938 -4.75 -6.578125 C -5.0625 -6.828125 -5.160156 -7.207031 -5.046875 -7.71875 C -4.984375 -8.09375 -4.890625 -8.441406 -4.765625 -8.765625 C -4.679688 -8.929688 -4.628906 -9.085938 -4.609375 -9.234375 C -3.546875 -12.703125 -2.507812 -16.175781 -1.5 -19.65625 C -1.46875 -19.75 -1.441406 -19.863281 -1.421875 -20 C -1.296875 -20.375 -1.171875 -20.738281 -1.046875 -21.09375 C -0.648438 -21.695312 -0.101562 -21.960938 0.59375 -21.890625 C 1.394531 -21.785156 1.753906 -21.390625 1.671875 -20.703125 C 1.472656 -19.640625 1.285156 -18.585938 1.109375 -17.546875 C 0.992188 -17.066406 0.882812 -16.59375 0.78125 -16.125 C 0.613281 -15.300781 0.597656 -14.785156 0.734375 -14.578125 C 0.878906 -14.367188 1.351562 -14.601562 2.15625 -15.28125 C 2.6875 -15.769531 3.210938 -16.265625 3.734375 -16.765625 C 4.359375 -17.359375 4.972656 -17.914062 5.578125 -18.4375 C 6.492188 -19.226562 7.445312 -19.925781 8.4375 -20.53125 C 8.925781 -20.832031 9.4375 -21.085938 9.96875 -21.296875 C 10.5 -21.503906 11.039062 -21.457031 11.59375 -21.15625 C 11.988281 -20.925781 12.191406 -20.613281 12.203125 -20.21875 C 12.210938 -19.832031 12.175781 -19.457031 12.09375 -19.09375 C 11.90625 -18.375 11.851562 -17.925781 11.9375 -17.75 C 12.019531 -17.582031 12.179688 -17.578125 12.421875 -17.734375 C 12.660156 -17.890625 13.078125 -18.222656 13.671875 -18.734375 C 14.273438 -19.242188 14.921875 -19.800781 15.609375 -20.40625 C 16.460938 -21.1875 17.378906 -21.941406 18.359375 -22.671875 C 19.148438 -23.390625 20.039062 -23.894531 21.03125 -24.1875 C 22.394531 -24.507812 23.046875 -24.039062 22.984375 -22.78125 C 22.929688 -21.53125 22.675781 -20.007812 22.21875 -18.21875 C 21.769531 -16.425781 21.863281 -15.382812 22.5 -15.09375 C 23.132812 -14.800781 24.320312 -15.523438 26.0625 -17.265625 C 27.800781 -19.003906 28.789062 -19.976562 29.03125 -20.1875 Z M 29.03125 -20.1875 "/></g></g><g transform="translate(124.674363, 232.68532)"><g><path d="M 19.359375 -18.890625 C 19.878906 -18.703125 20.019531 -18.050781 19.78125 -16.9375 C 19.320312 -16.082031 18.816406 -15.265625 18.265625 -14.484375 C 17.710938 -13.710938 17.085938 -13.003906 16.390625 -12.359375 C 16.328125 -12.347656 16.296875 -12.320312 16.296875 -12.28125 C 15.835938 -11.84375 15.335938 -11.445312 14.796875 -11.09375 C 10.273438 -8.582031 7.660156 -9.195312 6.953125 -12.9375 C 5.285156 -10.925781 4.148438 -9.679688 3.546875 -9.203125 C 2.109375 -7.992188 0.457031 -7.289062 -1.40625 -7.09375 C -2.78125 -6.957031 -3.773438 -7.222656 -4.390625 -7.890625 C -5.003906 -8.566406 -5.125 -9.59375 -4.75 -10.96875 C -4.207031 -13.144531 -3.242188 -15.15625 -1.859375 -17 C -0.242188 -19.082031 1.644531 -20.84375 3.8125 -22.28125 C 4.945312 -23.113281 6.207031 -23.570312 7.59375 -23.65625 C 8.96875 -23.789062 9.921875 -23.148438 10.453125 -21.734375 C 10.628906 -21.296875 10.578125 -20.882812 10.296875 -20.5 C 9.921875 -20.019531 9.425781 -19.847656 8.8125 -19.984375 C 8.769531 -19.984375 8.710938 -19.984375 8.640625 -19.984375 C 8.566406 -19.984375 8.503906 -20.003906 8.453125 -20.046875 C 7.734375 -20.742188 7.085938 -20.976562 6.515625 -20.75 C 5.953125 -20.53125 5.375 -20.171875 4.78125 -19.671875 C 1.976562 -17.359375 0.0859375 -14.460938 -0.890625 -10.984375 C -0.941406 -10.828125 -0.960938 -10.660156 -0.953125 -10.484375 C -0.953125 -10.316406 -0.882812 -10.191406 -0.75 -10.109375 C -0.363281 -10.054688 0.0351562 -10.148438 0.453125 -10.390625 C 0.867188 -10.628906 1.269531 -10.945312 1.65625 -11.34375 C 2.050781 -11.75 2.375 -12.085938 2.625 -12.359375 C 2.65625 -12.429688 2.671875 -12.46875 2.671875 -12.46875 C 3.929688 -13.925781 5.164062 -15.410156 6.375 -16.921875 C 6.894531 -17.679688 7.609375 -18.175781 8.515625 -18.40625 C 9.835938 -18.625 10.484375 -18.128906 10.453125 -16.921875 C 10.398438 -16.453125 10.34375 -15.988281 10.28125 -15.53125 C 10.070312 -13.53125 10.234375 -12.398438 10.765625 -12.140625 C 11.296875 -11.890625 12.03125 -12.007812 12.96875 -12.5 C 13.914062 -13 14.804688 -13.796875 15.640625 -14.890625 C 16.484375 -15.984375 17.179688 -16.972656 17.734375 -17.859375 C 18.296875 -18.742188 18.835938 -19.085938 19.359375 -18.890625 Z M 19.359375 -18.890625 "/></g></g><g transform="translate(144.639809, 229.442458)"><g><path d="M 9.90625 -14.640625 C 9.039062 -13.191406 7.960938 -11.816406 6.671875 -10.515625 C 5.378906 -9.210938 3.835938 -8.222656 2.046875 -7.546875 C 0.265625 -6.878906 -1.1875 -6.78125 -2.3125 -7.25 C -3.445312 -7.726562 -3.882812 -9.125 -3.625 -11.4375 C -3.1875 -13.851562 -2.4375 -16.210938 -1.375 -18.515625 C -1.125 -19.003906 -0.707031 -19.390625 -0.125 -19.671875 C 0.289062 -19.847656 0.6875 -19.832031 1.0625 -19.625 C 1.4375 -19.425781 1.613281 -19.132812 1.59375 -18.75 C 1.414062 -17.96875 1.203125 -17.1875 0.953125 -16.40625 C 0.710938 -15.632812 0.550781 -15.125 0.46875 -14.875 C -0.03125 -13.476562 -0.304688 -12.054688 -0.359375 -10.609375 C -0.234375 -9.804688 0.84375 -9.929688 2.875 -10.984375 C 4.914062 -12.035156 6.796875 -13.660156 8.515625 -15.859375 C 10.234375 -18.066406 11.113281 -18.773438 11.15625 -17.984375 C 11.195312 -17.203125 10.78125 -16.085938 9.90625 -14.640625 Z M 3 -23.859375 C 2.925781 -23.753906 2.738281 -23.625 2.4375 -23.46875 C 2.144531 -23.3125 1.828125 -23.175781 1.484375 -23.0625 C 1.148438 -22.957031 0.867188 -22.96875 0.640625 -23.09375 C 0.421875 -23.21875 0.351562 -23.535156 0.4375 -24.046875 C 0.632812 -24.941406 0.851562 -25.734375 1.09375 -26.421875 C 1.34375 -27.117188 1.6875 -27.894531 2.125 -28.75 C 2.4375 -29.15625 2.800781 -29.40625 3.21875 -29.5 C 3.632812 -29.601562 4 -29.550781 4.3125 -29.34375 C 4.632812 -29.132812 4.773438 -28.800781 4.734375 -28.34375 C 4.554688 -26.675781 3.976562 -25.179688 3 -23.859375 Z M 3 -23.859375 "/></g></g><g transform="translate(156.384189, 227.534892)"><g><path d="M 12.25 -16.71875 C 12.800781 -17.5 13.289062 -17.960938 13.71875 -18.109375 C 14.144531 -18.265625 14.441406 -18.242188 14.609375 -18.046875 C 14.773438 -17.847656 14.742188 -17.53125 14.515625 -17.09375 C 13.085938 -14.675781 11.40625 -12.519531 9.46875 -10.625 C 7.53125 -8.726562 5.421875 -7.46875 3.140625 -6.84375 C 0.859375 -6.226562 -0.75 -7.265625 -1.6875 -9.953125 C -2.488281 -12.648438 -1.726562 -18.523438 0.59375 -27.578125 C 2.914062 -36.628906 4.710938 -44.023438 5.984375 -49.765625 C 6.078125 -50.273438 6.28125 -50.742188 6.59375 -51.171875 C 6.988281 -51.722656 7.535156 -51.929688 8.234375 -51.796875 C 8.484375 -51.722656 8.738281 -51.59375 9 -51.40625 C 9.257812 -51.21875 9.390625 -50.835938 9.390625 -50.265625 C 3.566406 -26.203125 0.960938 -13.207031 1.578125 -11.28125 C 2.191406 -9.363281 3.535156 -9.082031 5.609375 -10.4375 C 7.691406 -11.800781 9.253906 -13.097656 10.296875 -14.328125 C 11.347656 -15.554688 12 -16.351562 12.25 -16.71875 Z M 12.25 -16.71875 "/></g></g><g transform="translate(171.410972, 225.094186)"><g/></g><g transform="translate(194.177001, 221.396442)"><g><path d="M 174.875 -3.484375 C 175.03125 -3.378906 175.132812 -3.191406 175.1875 -2.921875 L 175.21875 -2.734375 C 175.226562 -2.640625 175.238281 -2.550781 175.25 -2.46875 C 175.195312 -2.1875 175.066406 -1.972656 174.859375 -1.828125 C 174.660156 -1.679688 174.429688 -1.585938 174.171875 -1.546875 C 174.054688 -1.535156 173.925781 -1.523438 173.78125 -1.515625 C 173.632812 -1.515625 173.515625 -1.53125 173.421875 -1.5625 C 172.316406 -2.25 171.164062 -2.648438 169.96875 -2.765625 C 168.769531 -2.890625 167.585938 -2.921875 166.421875 -2.859375 C 165.691406 -2.847656 164.988281 -2.847656 164.3125 -2.859375 C 148.707031 -3.378906 133.140625 -3.210938 117.609375 -2.359375 C 109.710938 -1.835938 101.816406 -1.210938 93.921875 -0.484375 C 87.828125 0.0859375 81.75 0.8125 75.6875 1.6875 C 71.707031 2.289062 67.734375 2.820312 63.765625 3.28125 C 60.835938 3.644531 57.910156 4.117188 54.984375 4.703125 C 54.046875 4.898438 53.132812 5.066406 52.25 5.203125 C 49.5625 5.679688 46.878906 6.160156 44.203125 6.640625 C 36.890625 7.941406 29.609375 9.304688 22.359375 10.734375 C 16.109375 11.972656 9.90625 13.367188 3.75 14.921875 C -2.394531 16.472656 -8.472656 18.296875 -14.484375 20.390625 C -18.578125 21.742188 -22.515625 23.445312 -26.296875 25.5 C -26.429688 25.570312 -26.585938 25.664062 -26.765625 25.78125 C -27.171875 26.039062 -27.59375 26.265625 -28.03125 26.453125 C -28.476562 26.640625 -28.96875 26.722656 -29.5 26.703125 C -30.101562 26.722656 -30.515625 26.472656 -30.734375 25.953125 C -30.796875 25.796875 -30.8125 25.613281 -30.78125 25.40625 C -30.757812 25.195312 -30.695312 25.015625 -30.59375 24.859375 C -29.894531 24.054688 -29.171875 23.300781 -28.421875 22.59375 C -21.660156 15.957031 -15.113281 9.113281 -8.78125 2.0625 C 2.382812 -10.082031 12.90625 -22.765625 22.78125 -35.984375 C 28.925781 -44.179688 35.179688 -52.269531 41.546875 -60.25 C 45.628906 -65.34375 49.671875 -70.476562 53.671875 -75.65625 C 55.617188 -78.207031 57.535156 -80.789062 59.421875 -83.40625 C 59.671875 -83.769531 59.910156 -84.109375 60.140625 -84.421875 C 60.265625 -84.515625 60.351562 -84.617188 60.40625 -84.734375 C 60.601562 -84.992188 60.78125 -85.257812 60.9375 -85.53125 C 61.101562 -85.8125 61.160156 -86.117188 61.109375 -86.453125 C 60.597656 -86.742188 60.09375 -86.894531 59.59375 -86.90625 C 59.101562 -86.914062 58.585938 -86.878906 58.046875 -86.796875 C 57.828125 -86.753906 57.59375 -86.710938 57.34375 -86.671875 C 51.707031 -86.171875 46.097656 -85.535156 40.515625 -84.765625 C 34.929688 -83.992188 29.347656 -83.019531 23.765625 -81.84375 C 19.078125 -80.894531 14.40625 -79.832031 9.75 -78.65625 C 5.09375 -77.488281 0.488281 -76.109375 -4.0625 -74.515625 C -4.28125 -74.441406 -4.492188 -74.367188 -4.703125 -74.296875 C -5.523438 -74.003906 -6.3125 -73.671875 -7.0625 -73.296875 C -7.820312 -72.929688 -8.507812 -72.4375 -9.125 -71.8125 C -8.851562 -70.945312 -8.410156 -70.28125 -7.796875 -69.8125 C -7.179688 -69.34375 -6.476562 -68.941406 -5.6875 -68.609375 C -5.289062 -68.410156 -4.898438 -68.203125 -4.515625 -67.984375 C -2.273438 -66.710938 0.101562 -65.738281 2.625 -65.0625 C 2.71875 -65.03125 2.804688 -64.957031 2.890625 -64.84375 C 2.984375 -64.726562 3.054688 -64.632812 3.109375 -64.5625 C 3.160156 -64.28125 3.113281 -64.082031 2.96875 -63.96875 C 2.832031 -63.863281 2.675781 -63.765625 2.5 -63.671875 C 1.488281 -63.296875 0.484375 -63.25 -0.515625 -63.53125 C -2.472656 -64.113281 -4.367188 -64.8125 -6.203125 -65.625 C -8.035156 -66.4375 -9.78125 -67.441406 -11.4375 -68.640625 C -14.09375 -70.566406 -14.007812 -72.363281 -11.1875 -74.03125 C -9.664062 -74.957031 -8.050781 -75.742188 -6.34375 -76.390625 C -3.863281 -77.390625 -1.351562 -78.25 1.1875 -78.96875 C 3.726562 -79.695312 6.285156 -80.414062 8.859375 -81.125 C 9.128906 -81.164062 9.382812 -81.226562 9.625 -81.3125 C 16.257812 -83.019531 22.9375 -84.441406 29.65625 -85.578125 C 36.382812 -86.710938 43.117188 -87.738281 49.859375 -88.65625 C 53.597656 -89.132812 57.351562 -89.476562 61.125 -89.6875 C 62.070312 -89.726562 62.953125 -89.90625 63.765625 -90.21875 C 64.578125 -90.53125 65.273438 -91.101562 65.859375 -91.9375 C 66.015625 -92.175781 66.25 -92.375 66.5625 -92.53125 C 66.875 -92.695312 67.171875 -92.859375 67.453125 -93.015625 C 67.578125 -93.078125 67.679688 -93.140625 67.765625 -93.203125 C 68.148438 -93.347656 68.5 -93.332031 68.8125 -93.15625 C 69.132812 -92.976562 69.296875 -92.640625 69.296875 -92.140625 C 69.328125 -91.648438 69.421875 -91.28125 69.578125 -91.03125 C 69.734375 -90.789062 70.050781 -90.6875 70.53125 -90.71875 C 70.769531 -90.707031 71 -90.71875 71.21875 -90.75 C 72.15625 -90.820312 73.101562 -90.820312 74.0625 -90.75 C 74.632812 -90.707031 74.953125 -90.367188 75.015625 -89.734375 C 74.984375 -89.503906 74.898438 -89.3125 74.765625 -89.15625 C 74.640625 -89 74.484375 -88.90625 74.296875 -88.875 C 73.304688 -88.625 72.304688 -88.398438 71.296875 -88.203125 C 70.179688 -88.023438 69.296875 -87.882812 68.640625 -87.78125 C 67.828125 -87.675781 67.222656 -87.554688 66.828125 -87.421875 C 66.429688 -87.285156 66.085938 -87.0625 65.796875 -86.75 C 65.503906 -86.4375 65.117188 -85.925781 64.640625 -85.21875 C 64.265625 -84.695312 63.78125 -84.023438 63.1875 -83.203125 C 58.46875 -76.804688 53.625 -70.488281 48.65625 -64.25 C 47.007812 -62.125 45.359375 -60.019531 43.703125 -57.9375 C 36.472656 -48.601562 29.269531 -39.226562 22.09375 -29.8125 C 12.726562 -17.632812 2.835938 -5.9375 -7.578125 5.28125 C -9.929688 7.820312 -12.300781 10.359375 -14.6875 12.890625 C -16.125 14.429688 -17.570312 15.957031 -19.03125 17.46875 C -19.125 17.5625 -19.226562 17.671875 -19.34375 17.796875 C -19.570312 18.015625 -19.773438 18.25 -19.953125 18.5 C -20.140625 18.757812 -20.203125 19.082031 -20.140625 19.46875 C -19.234375 19.195312 -18.332031 18.914062 -17.4375 18.625 C -15.28125 17.9375 -13.109375 17.222656 -10.921875 16.484375 C -4.035156 14.273438 2.976562 12.363281 10.125 10.75 C 19.09375 8.757812 28.109375 6.921875 37.171875 5.234375 C 46.234375 3.554688 55.3125 2.003906 64.40625 0.578125 C 78.300781 -1.578125 92.242188 -3.164062 106.234375 -4.1875 C 127.128906 -5.65625 148 -5.800781 168.84375 -4.625 C 169.039062 -4.601562 169.226562 -4.585938 169.40625 -4.578125 C 170.664062 -4.554688 171.898438 -4.457031 173.109375 -4.28125 C 173.765625 -4.164062 174.351562 -3.898438 174.875 -3.484375 Z M 174.875 -3.484375 "/></g></g><g transform="translate(230.223213, 215.541682)"><g><path d="M 19.359375 -18.890625 C 19.878906 -18.703125 20.019531 -18.050781 19.78125 -16.9375 C 19.320312 -16.082031 18.816406 -15.265625 18.265625 -14.484375 C 17.710938 -13.710938 17.085938 -13.003906 16.390625 -12.359375 C 16.328125 -12.347656 16.296875 -12.320312 16.296875 -12.28125 C 15.835938 -11.84375 15.335938 -11.445312 14.796875 -11.09375 C 10.273438 -8.582031 7.660156 -9.195312 6.953125 -12.9375 C 5.285156 -10.925781 4.148438 -9.679688 3.546875 -9.203125 C 2.109375 -7.992188 0.457031 -7.289062 -1.40625 -7.09375 C -2.78125 -6.957031 -3.773438 -7.222656 -4.390625 -7.890625 C -5.003906 -8.566406 -5.125 -9.59375 -4.75 -10.96875 C -4.207031 -13.144531 -3.242188 -15.15625 -1.859375 -17 C -0.242188 -19.082031 1.644531 -20.84375 3.8125 -22.28125 C 4.945312 -23.113281 6.207031 -23.570312 7.59375 -23.65625 C 8.96875 -23.789062 9.921875 -23.148438 10.453125 -21.734375 C 10.628906 -21.296875 10.578125 -20.882812 10.296875 -20.5 C 9.921875 -20.019531 9.425781 -19.847656 8.8125 -19.984375 C 8.769531 -19.984375 8.710938 -19.984375 8.640625 -19.984375 C 8.566406 -19.984375 8.503906 -20.003906 8.453125 -20.046875 C 7.734375 -20.742188 7.085938 -20.976562 6.515625 -20.75 C 5.953125 -20.53125 5.375 -20.171875 4.78125 -19.671875 C 1.976562 -17.359375 0.0859375 -14.460938 -0.890625 -10.984375 C -0.941406 -10.828125 -0.960938 -10.660156 -0.953125 -10.484375 C -0.953125 -10.316406 -0.882812 -10.191406 -0.75 -10.109375 C -0.363281 -10.054688 0.0351562 -10.148438 0.453125 -10.390625 C 0.867188 -10.628906 1.269531 -10.945312 1.65625 -11.34375 C 2.050781 -11.75 2.375 -12.085938 2.625 -12.359375 C 2.65625 -12.429688 2.671875 -12.46875 2.671875 -12.46875 C 3.929688 -13.925781 5.164062 -15.410156 6.375 -16.921875 C 6.894531 -17.679688 7.609375 -18.175781 8.515625 -18.40625 C 9.835938 -18.625 10.484375 -18.128906 10.453125 -16.921875 C 10.398438 -16.453125 10.34375 -15.988281 10.28125 -15.53125 C 10.070312 -13.53125 10.234375 -12.398438 10.765625 -12.140625 C 11.296875 -11.890625 12.03125 -12.007812 12.96875 -12.5 C 13.914062 -13 14.804688 -13.796875 15.640625 -14.890625 C 16.484375 -15.984375 17.179688 -16.972656 17.734375 -17.859375 C 18.296875 -18.742188 18.835938 -19.085938 19.359375 -18.890625 Z M 19.359375 -18.890625 "/></g></g><g transform="translate(250.188659, 212.29882)"><g><path d="M 22.171875 -18 C 21.859375 -17.625 21.519531 -17.269531 21.15625 -16.9375 C 20.007812 -15.925781 18.957031 -15.101562 18 -14.46875 C 17.039062 -13.84375 15.898438 -13.179688 14.578125 -12.484375 C 12.578125 -11.515625 11.207031 -11.429688 10.46875 -12.234375 C 9.738281 -13.046875 9.441406 -14.285156 9.578125 -15.953125 C 9.765625 -18.335938 9.816406 -20.070312 9.734375 -21.15625 C 9.660156 -22.238281 9.253906 -22.546875 8.515625 -22.078125 C 7.773438 -21.617188 6.515625 -20.285156 4.734375 -18.078125 C 2.222656 -15.085938 0.195312 -11.8125 -1.34375 -8.25 C -1.53125 -7.769531 -1.789062 -7.351562 -2.125 -7 C -2.46875 -6.65625 -2.914062 -6.4375 -3.46875 -6.34375 C -4.007812 -6.257812 -4.425781 -6.335938 -4.71875 -6.578125 C -5.007812 -6.828125 -5.078125 -7.210938 -4.921875 -7.734375 C -4.160156 -10.535156 -3.367188 -13.328125 -2.546875 -16.109375 C -1.148438 -20.898438 0.222656 -25.671875 1.578125 -30.421875 C 2.585938 -33.984375 3.578125 -37.546875 4.546875 -41.109375 C 5.160156 -43.210938 5.75 -45.304688 6.3125 -47.390625 C 6.351562 -47.566406 6.410156 -47.753906 6.484375 -47.953125 C 6.535156 -48.179688 6.597656 -48.414062 6.671875 -48.65625 C 6.742188 -48.894531 6.832031 -49.15625 6.9375 -49.4375 C 7.019531 -49.664062 7.210938 -49.878906 7.515625 -50.078125 C 7.828125 -50.285156 8.144531 -50.4375 8.46875 -50.53125 C 8.800781 -50.625 9.0625 -50.644531 9.25 -50.59375 C 9.539062 -50.445312 9.710938 -50.273438 9.765625 -50.078125 C 9.828125 -49.890625 9.828125 -49.675781 9.765625 -49.4375 C 9.734375 -49.394531 9.726562 -49.320312 9.75 -49.21875 C 9.539062 -47.96875 9.304688 -46.753906 9.046875 -45.578125 C 7.492188 -39.023438 5.695312 -32.519531 3.65625 -26.0625 C 3.488281 -25.625 3.300781 -25.097656 3.09375 -24.484375 C 2.789062 -23.609375 2.507812 -22.753906 2.25 -21.921875 C 2 -21.085938 1.957031 -20.550781 2.125 -20.3125 C 2.289062 -20.070312 2.859375 -20.367188 3.828125 -21.203125 C 4.109375 -21.484375 4.359375 -21.753906 4.578125 -22.015625 C 5.335938 -22.710938 6.085938 -23.378906 6.828125 -24.015625 C 7.460938 -24.617188 8.222656 -25.015625 9.109375 -25.203125 C 11.203125 -25.671875 12.539062 -24.90625 13.125 -22.90625 C 13.351562 -22.09375 13.457031 -21.269531 13.4375 -20.4375 C 13.414062 -19.613281 13.351562 -18.796875 13.25 -17.984375 C 13.238281 -17.742188 13.234375 -17.515625 13.234375 -17.296875 C 13.085938 -15.867188 13.304688 -15.097656 13.890625 -14.984375 C 14.484375 -14.878906 15.238281 -15.117188 16.15625 -15.703125 C 17.082031 -16.285156 18.015625 -16.960938 18.953125 -17.734375 C 19.585938 -18.210938 20.148438 -18.617188 20.640625 -18.953125 C 21.128906 -19.296875 21.507812 -19.476562 21.78125 -19.5 C 22.28125 -19.488281 22.53125 -19.320312 22.53125 -19 C 22.539062 -18.6875 22.421875 -18.351562 22.171875 -18 Z M 22.171875 -18 "/></g></g><g transform="translate(273.165484, 208.566838)"><g><path d="M 9.90625 -14.640625 C 9.039062 -13.191406 7.960938 -11.816406 6.671875 -10.515625 C 5.378906 -9.210938 3.835938 -8.222656 2.046875 -7.546875 C 0.265625 -6.878906 -1.1875 -6.78125 -2.3125 -7.25 C -3.445312 -7.726562 -3.882812 -9.125 -3.625 -11.4375 C -3.1875 -13.851562 -2.4375 -16.210938 -1.375 -18.515625 C -1.125 -19.003906 -0.707031 -19.390625 -0.125 -19.671875 C 0.289062 -19.847656 0.6875 -19.832031 1.0625 -19.625 C 1.4375 -19.425781 1.613281 -19.132812 1.59375 -18.75 C 1.414062 -17.96875 1.203125 -17.1875 0.953125 -16.40625 C 0.710938 -15.632812 0.550781 -15.125 0.46875 -14.875 C -0.03125 -13.476562 -0.304688 -12.054688 -0.359375 -10.609375 C -0.234375 -9.804688 0.84375 -9.929688 2.875 -10.984375 C 4.914062 -12.035156 6.796875 -13.660156 8.515625 -15.859375 C 10.234375 -18.066406 11.113281 -18.773438 11.15625 -17.984375 C 11.195312 -17.203125 10.78125 -16.085938 9.90625 -14.640625 Z M 3 -23.859375 C 2.925781 -23.753906 2.738281 -23.625 2.4375 -23.46875 C 2.144531 -23.3125 1.828125 -23.175781 1.484375 -23.0625 C 1.148438 -22.957031 0.867188 -22.96875 0.640625 -23.09375 C 0.421875 -23.21875 0.351562 -23.535156 0.4375 -24.046875 C 0.632812 -24.941406 0.851562 -25.734375 1.09375 -26.421875 C 1.34375 -27.117188 1.6875 -27.894531 2.125 -28.75 C 2.4375 -29.15625 2.800781 -29.40625 3.21875 -29.5 C 3.632812 -29.601562 4 -29.550781 4.3125 -29.34375 C 4.632812 -29.132812 4.773438 -28.800781 4.734375 -28.34375 C 4.554688 -26.675781 3.976562 -25.179688 3 -23.859375 Z M 3 -23.859375 "/></g></g><g transform="translate(284.909864, 206.659272)"><g><path d="M 11.453125 -20.828125 C 11.492188 -19.410156 10.988281 -18.398438 9.9375 -17.796875 C 8.882812 -17.191406 8.425781 -17.6875 8.5625 -19.28125 C 8.707031 -20.875 7.953125 -21.148438 6.296875 -20.109375 C 4.648438 -19.066406 3.351562 -17.882812 2.40625 -16.5625 C 0.9375 -14.457031 -0.304688 -12.253906 -1.328125 -9.953125 C -1.441406 -9.753906 -1.53125 -9.582031 -1.59375 -9.4375 C -1.894531 -8.800781 -2.207031 -8.1875 -2.53125 -7.59375 C -2.738281 -7.195312 -3.007812 -6.921875 -3.34375 -6.765625 C -3.6875 -6.617188 -4.039062 -6.546875 -4.40625 -6.546875 C -4.75 -6.535156 -5.023438 -6.625 -5.234375 -6.8125 C -5.453125 -7 -5.523438 -7.253906 -5.453125 -7.578125 C -5.304688 -8.160156 -5.128906 -8.757812 -4.921875 -9.375 C -3.648438 -13.019531 -2.359375 -16.679688 -1.046875 -20.359375 C -1.015625 -20.390625 -1.003906 -20.425781 -1.015625 -20.46875 C -0.828125 -21.039062 -0.59375 -21.578125 -0.3125 -22.078125 C 0.0195312 -22.578125 0.453125 -22.832031 0.984375 -22.84375 C 1.523438 -22.851562 1.925781 -22.601562 2.1875 -22.09375 C 2.53125 -21.414062 2.789062 -21.046875 2.96875 -20.984375 C 3.144531 -20.921875 3.492188 -21.046875 4.015625 -21.359375 C 5.140625 -22.003906 6.257812 -22.503906 7.375 -22.859375 C 8.488281 -23.222656 9.4375 -23.332031 10.21875 -23.1875 C 11 -23.039062 11.410156 -22.253906 11.453125 -20.828125 Z M 11.453125 -20.828125 "/></g></g></g><g clip-path="url(#c3adc7270c)"><g clip-path="url(#7da1c52035)"><path fill="#ffffff" d="M 337.5 182.054688 L 342.945312 182.054688 L 342.945312 187.5 L 337.5 187.5 Z M 337.5 182.054688 " fill-opacity="1" fill-rule="nonzero"/></g></g></svg>